# xmcd
#
# Track frame offsets: 
#        150
#        15057
#        27505
#        39619
#        51154
#        73494
#        97687
#        110379
#        128588
#        137972
#        148434
#        162269
#        177155
#        188844
#        201028
#        214911
#        230584
#        241096
#        261485
#        285678
#        299652
#
# Disc length: 4157 seconds
#
# Revision: 0
# Processed by: cddbd v1.5.2PL0 Copyright (c) Steve Scherf et al.
# Submitted via: ExactAudioCopy v0.95b3
#
DISCID=43103b15
DTITLE=Omega - Red Star - From Hungary
DYEAR=1968
DGENRE=Rock
TTITLE0=Wake Up
TTITLE1=Mamma Said
TTITLE2=If I Were The Wind
TTITLE3=Red Rose
TTITLE4=Tomorrow
TTITLE5=There's Nothing I Can Do
TTITLE6=Once I Knew A Girl
TTITLE7=The Clown
TTITLE8=Hungarian Folk Song
TTITLE9=Trumpeter Charlie
TTITLE10=Dead Are The Flowers
TTITLE11=Paint It Black
TTITLE12=Bus Stop
TTITLE13=Bend It
TTITLE14=Little Man
TTITLE15=What Now My Love
TTITLE16=Dead Are The Flowers (SP version)
TTITLE17=Prodigal Son
TTITLE18=Pearls In Her Hair
TTITLE19=Petroleum Lantern
TTITLE20=Kiabálj, énekelj
EXTD=
EXTT0=
EXTT1=
EXTT2=
EXTT3=
EXTT4=
EXTT5=
EXTT6=
EXTT7=
EXTT8=
EXTT9=
EXTT10=
EXTT11=
EXTT12=
EXTT13=
EXTT14=
EXTT15=
EXTT16=
EXTT17=
EXTT18=
EXTT19=
EXTT20=
PLAYORDER=
